Coordinates
version=1
nRows=15
nColumns=42
inDegrees=yes

Units are S.I. units (second, meters, Newtons, ...)
If the header above contains a line with 'inDegrees', this indicates whether rotational values are in degrees (yes) or radians (no).

endheader
time	pelvis_tilt	pelvis_list	pelvis_rotation	pelvis_tx	pelvis_ty	pelvis_tz	hip_flexion_r	hip_adduction_r	hip_rotation_r	knee_angle_r	knee_adduction_r	knee_angle_r_beta	ankle_angle_r	subtalar_angle_r	mtp_angle_r	hip_flexion_l	hip_adduction_l	hip_rotation_l	knee_angle_l	knee_adduction_l	knee_angle_l_beta	ankle_angle_l	subtalar_angle_l	mtp_angle_l	lumbar_extension	lumbar_bending	lumbar_rotation	arm_flex_r	arm_add_r	arm_rot_r	elbow_flex_r	pro_sup_r	wrist_flex_r	wrist_dev_r	arm_flex_l	arm_add_l	arm_rot_l	elbow_flex_l	pro_sup_l	wrist_flex_l	wrist_dev_l
      2.94000000	     -1.34852835	     -2.25336236	     -2.35732313	      1.12958859	      0.88073020	     -0.14296805	     -9.66967657	     -1.81756462	     -3.56463289	      6.45027469	     12.26105268	      0.11257853	     16.94529426	      4.27874321	     -7.50033338	     23.96033453	    -12.88837915	     -5.86808818	     16.28141399	     16.27259443	      0.28416428	      3.61990960	     -4.66862987	     -7.50033338	    -14.71768308	      5.26850671	      2.47783208	     -6.82323131	    -14.22407530	     -3.09631656	     18.64540845	     90.00000001	      0.00000000	      0.00000000	    -13.16321399	     -7.20867283	      8.00302382	     21.95069405	     90.00000001	      0.00000000	      0.00000000
      2.95000000	     -1.10713683	     -2.20842748	     -2.61467948	      1.14008568	      0.87917790	     -0.14335914	    -10.63313655	     -2.06106567	     -3.61530047	      6.58263865	     12.44069245	      0.11488872	     17.30161406	      4.35300046	     -7.50031860	     23.49261173	    -12.61005157	     -6.98025050	     13.41361772	     15.70619716	      0.23411179	      3.60847831	     -3.69123069	     -7.50031860	    -14.99575375	      5.04055176	      2.64523503	     -6.85254715	    -14.27612816	     -3.02751742	     18.61332980	     90.00000001	      0.00000000	      0.00000000	    -13.27020337	     -7.09205238	      8.04558497	     22.05986558	     90.00000001	      0.00000000	      0.00000000
      2.96000000	     -1.14806162	     -2.36125576	     -2.82584763	      1.15042435	      0.87722949	     -0.14362690	    -11.23626653	     -1.99123009	     -3.67099735	      6.81141084	     12.46553555	      0.11888155	     17.64259993	      4.42302195	     -7.50030494	     23.50913789	    -12.60122680	     -7.96198713	     11.01527182	     15.25939312	      0.19225276	      3.63589104	     -2.72660764	     -7.50030494	    -14.98393722	      5.02477942	      2.81658529	     -6.90206422	    -14.32325103	     -2.97301198	     18.58640457	     90.00000001	      0.00000000	      0.00000000	    -13.38766699	     -6.98314043	      8.09552224	     22.18768669	     90.00000001	      0.00000000	      0.00000000
      2.97000000	     -1.17736797	     -2.49642615	     -3.05260036	      1.16093784	      0.87527120	     -0.14395088	    -11.85486557	     -1.96892502	     -3.71838415	      7.06572287	     12.50008342	      0.12332013	     17.95252412	      4.56559490	     -7.50029184	     23.52166024	    -12.58377617	     -8.99138283	      8.92527060	     14.86579061	      0.15577536	      3.80813133	     -1.79090894	     -7.50029184	    -14.97232307	      4.97875466	      2.99389795	     -6.96597648	    -14.36283705	     -2.92680429	     18.57646063	     90.00000001	      0.00000000	      0.00000000	    -13.51982967	     -6.88601417	      8.15351410	     22.34516775	     90.00000001	      0.00000000	      0.00000000
      2.98000000	     -1.40510907	     -2.76821109	     -3.24596932	      1.17145222	      0.87304725	     -0.14422796	    -12.25535394	     -1.73666032	     -3.66594635	      7.32781713	     12.42894604	      0.12789454	     18.20046973	      4.64137239	     -7.50028711	     23.90170887	    -12.76585007	     -9.87642570	      7.36790610	     14.60294432	      0.12859422	      4.09220532	     -1.10437302	     -7.50028711	    -14.74152900	      5.08511267	      3.15913934	     -7.04201161	    -14.39986131	     -2.89561753	     18.52607750	     90.00000001	      0.00000000	      0.00000000	    -13.67194538	     -6.79014259	      8.18795241	     22.52522273	     90.00000001	      0.00000000	      0.00000000
      2.99000000	     -1.55537054	     -3.05675576	     -3.20963639	      1.18209892	      0.87089958	     -0.14494301	    -12.80601705	     -1.54010976	     -3.81439447	      7.52694915	     12.49723687	      0.13137005	     18.27783782	      4.64459002	     -7.50028534	     24.52584224	    -12.86387624	    -10.70761879	      6.74234617	     14.31453126	      0.11767614	      4.31134905	     -1.05911203	     -7.50028534	    -14.58108287	      5.25064440	      3.10736583	     -7.13481917	    -14.41754800	     -2.89546818	     18.57011263	     90.00000001	      0.00000000	      0.00000000	    -13.78352228	     -6.70251874	      8.20798104	     22.63506826	     90.00000001	      0.00000000	      0.00000000
      3.00000000	     -1.72258690	     -3.25910592	     -3.30531144	      1.19301003	      0.86882592	     -0.14552860	    -13.32318043	     -1.44145458	     -3.80251841	      7.74892115	     12.46938598	      0.13524419	     18.36696685	      4.69132021	     -7.50028371	     24.96012709	    -12.92276376	    -11.40113483	      6.08127089	     14.12020267	      0.10613820	      4.60492132	     -0.93922314	     -7.50028371	    -14.40592351	      5.29549607	      3.15839474	     -7.25974266	    -14.42007000	     -2.88903578	     18.56631905	     90.00000001	      0.00000000	      0.00000000	    -13.93927764	     -6.63330766	      8.22885936	     22.77058016	     90.00000001	      0.00000000	      0.00000000
      3.01000000	     -1.32149011	     -2.79533563	     -4.05619538	      1.20467677	      0.86775080	     -0.14583439	    -14.33364116	     -2.43711633	     -3.26454532	      8.12707937	     12.69482977	      0.14184429	     18.70345207	      5.30650419	     -7.50027273	     23.97687818	    -12.38075543	    -12.49696884	      4.69986091	     13.85600222	      0.08202805	      5.19440997	      0.04416481	     -7.50027273	    -14.79323868	      4.43676583	      3.76537587	     -7.35463716	    -14.38729762	     -2.86118124	     18.55334409	     90.00000001	      0.00000000	      0.00000000	    -14.09238007	     -6.66657111	      8.44716621	     23.17700710	     90.00000001	      0.00000000	      0.00000000
      3.02000000	     -1.44114207	     -2.91518056	     -4.12523700	      1.21587578	      0.86594719	     -0.14658354	    -14.84834019	     -2.47567520	     -3.10996170	      8.47322621	     12.67010412	      0.14788570	     18.66047440	      5.36258823	     -7.50027141	     24.40548585	    -12.37620628	    -12.55208759	      4.82709925	     13.78752189	      0.08424878	      5.22398835	      0.06782891	     -7.50027141	    -14.63276315	      4.37279158	      3.79201747	     -7.48968503	    -14.35162856	     -2.85994171	     18.60987050	     90.00000001	      0.00000000	      0.00000000	    -14.18484898	     -6.61805786	      8.44552691	     23.27371171	     90.00000001	      0.00000000	      0.00000000
      3.03000000	     -1.56004154	     -2.97843494	     -4.27122006	      1.22742460	      0.86429374	     -0.14737242	    -15.34902259	     -2.60944460	     -2.86618911	      8.84378480	     12.61597476	      0.15435316	     18.60103127	      5.43675651	     -7.50027011	     24.69655929	    -12.32863825	    -12.46153359	      5.07601586	     13.74375311	      0.08859319	      5.23142362	      0.07946371	     -7.50027011	    -14.44002401	      4.24315419	      3.85961757	     -7.65153091	    -14.32402480	     -2.86121752	     18.64280337	     90.00000001	      0.00000000	      0.00000000	    -14.32499575	     -6.57553086	      8.44489170	     23.37662995	     90.00000001	      0.00000000	      0.00000000
      3.04000000	     -1.54235394	     -2.53579161	     -4.75173614	      1.23890406	      0.86302036	     -0.14829968	    -15.81555902	     -3.61162770	     -2.15908736	      9.38679728	     12.97419956	      0.16383052	     18.51531366	      5.68457125	     -7.50026515	     24.86617636	    -11.80215284	    -12.82690774	      5.97388216	     13.52358302	      0.10426391	      5.11123761	     -0.74426324	     -7.50026515	    -14.42127571	      3.49289224	      4.18176745	     -7.69995218	    -14.26000627	     -2.87883084	     18.50907013	     90.00000001	      0.00000000	      0.00000000	    -14.50258238	     -6.65502590	      8.58410859	     23.91712957	     90.00000001	      0.00000000	      0.00000000
      3.05000000	     -1.52477164	     -2.32329665	     -4.96141165	      1.25060174	      0.86193976	     -0.14918623	    -16.30908322	     -4.15313777	     -1.70336270	      9.96337753	     13.04663819	      0.17389374	     18.30245714	      5.78014558	     -7.50026219	     24.98980128	    -11.51431436	    -12.25895340	      6.80966960	     13.55931398	      0.11885116	      4.48850618	     -0.83859103	     -7.50026219	    -14.37561886	      3.01755882	      4.29909976	     -7.83550940	    -14.15460207	     -2.89874660	     18.53363898	     90.00000001	      0.00000000	      0.00000000	    -14.56672807	     -6.70669880	      8.63773683	     24.04904890	     90.00000001	      0.00000000	      0.00000000
      3.06000000	     -1.46664207	     -1.92534615	     -5.10595388	      1.26244255	      0.86107603	     -0.15061802	    -16.77909291	     -5.02039586	     -1.38439568	     10.68816300	     13.32961983	      0.18654364	     17.80721273	      5.75677044	     -7.50025764	     25.19450830	    -10.94930361	    -11.83390834	      8.15440591	     13.47963827	      0.14232123	      3.19524447	     -1.48992329	     -7.50025764	    -14.35570829	      2.39502181	      4.28792306	     -7.92405468	    -14.07723886	     -2.97180390	     18.48374859	     90.00000001	      0.00000000	      0.00000000	    -14.64930485	     -6.77035780	      8.77842770	     24.28056772	     90.00000001	      0.00000000	      0.00000000
      3.07000000	     -1.52992033	     -1.43108729	     -5.19866323	      1.27428311	      0.86037219	     -0.15201988	    -16.96657696	     -5.90798078	     -1.24092098	     11.70844180	     13.48802666	      0.20435086	     17.31428475	      5.80802878	     -7.50022898	     25.15817678	    -10.18517881	     -9.62662958	      8.53999762	     13.58906664	      0.14905108	      0.75917719	     -4.99673918	     -7.50022898	    -14.17653004	      1.66010580	      4.26014974	     -8.00016962	    -13.86986479	     -3.37028195	     18.34472107	     90.00000001	      0.00000000	      0.00000000	    -14.68790980	     -6.91365995	      9.06263605	     24.42355724	     90.00000001	      0.00000000	      0.00000000
      3.08000000	     -1.40905131	     -1.14452343	     -5.24936976	      1.28630545	      0.86010153	     -0.15350264	    -17.35580316	     -6.58529290	     -0.90237313	     12.69082240	     13.70728702	      0.22149664	     16.42375741	      5.70916932	     -7.50022510	     25.26243339	     -9.82094635	     -8.79526341	     10.10501080	     13.80350120	      0.17636571	     -0.43568448	     -5.08696379	     -7.50022510	    -14.22652724	      1.16314354	      4.19244672	     -8.09379819	    -13.77279850	     -3.34584036	     18.34771561	     90.00000001	      0.00000000	      0.00000000	    -14.70795246	     -6.96877420	      9.07444331	     24.56688549	     90.00000001	      0.00000000	      0.00000000
